{
  "accessors": [
    {
      "bufferView": 1,
      "componentType": 5126,
      "count": 16361,
      "max": [
        12.656709671020508,
        4.726830005645752,
        4.734469890594482
      ],
      "min": [
        -1.205899953842163,
        -4.972259998321533,
        -4.964630126953125
      ],
      "type": "VEC3"
    },
    {
      "bufferView": 1,
      "byteOffset": 196332,
      "componentType": 5126,
      "count": 16361,
      "max": [
        1.0,
        0.9999993443489075,
        1.0
      ],
      "min": [
        -1.0,
        -0.9999994039535522,
        -1.0
      ],
      "type": "VEC3"
    },
    {
      "bufferView": 0,
      "componentType": 5125,
      "count": 96024,
      "type": "SCALAR"
    }
  ],
  "asset": {
    "extras": {
      "author": "ean47 (https://sketchfab.com/ean47)",
      "license": "CC-BY-4.0 (http://creativecommons.org/licenses/by/4.0/)",
      "source": "https://sketchfab.com/3d-models/buoy-da1a9915bd0446299998a896311e4d64",
      "title": "Buoy"
    },
    "generator": "Sketchfab-12.66.0",
    "version": "2.0"
  },
  "bufferViews": [
    {
      "buffer": 0,
      "byteLength": 384096,
      "name": "floatBufferViews",
      "target": 34963
    },
    {
      "buffer": 0,
      "byteLength": 392664,
      "byteOffset": 384096,
      "byteStride": 12,
      "name": "floatBufferViews",
      "target": 34962
    }
  ],
  "buffers": [
    {
      "byteLength": 776760,
      "uri": "scene.bin"
    }
  ],
  "materials": [
    {
      "doubleSided": true,
      "name": "Material.001",
      "pbrMetallicRoughness": {
        "metallicFactor": 0.0,
        "roughnessFactor": 0.6
      }
    }
  ],
  "meshes": [
    {
      "name": "Torus.001_0",
      "primitives": [
        {
          "attributes": {
            "NORMAL": 1,
            "POSITION": 0
          },
          "indices": 2,
          "material": 0,
          "mode": 4
        }
      ]
    }
  ],
  "nodes": [
    {
      "children": [
        1
      ],
      "matrix": [
        1.0,
        0.0,
        0.0,
        0.0,
        0.0,
        2.220446049250313e-16,
        -1.0,
        0.0,
        0.0,
        1.0,
        2.220446049250313e-16,
        0.0,
        5.922599939367501e-06,
        9.99800241306095e-22,
        -4.502699994191062e-06,
        1.0
      ],
      "name": "Sketchfab_model"
    },
    {
      "children": [
        2,
        4
      ],
      "name": "Root"
    },
    {
      "children": [
        3
      ],
      "matrix": [
        1.0,
        0.0,
        0.0,
        0.0,
        0.0,
        1.0,
        0.0,
        0.0,
        0.0,
        0.0,
        1.0,
        0.0,
        -3.8316599999999994,
        1.39578,
        118.58837999999999,
        1.0
      ],
      "name": "Hemi"
    },
    {
      "name": "Hemi"
    },
    {
      "children": [
        5
      ],
      "matrix": [
        0.0,
        0.0,
        -0.7877900000000001,
        0.0,
        -0.6227800000000001,
        0.48245000000000005,
        -0.0,
        0.0,
        0.48245000000000005,
        0.6227800000000001,
        0.0,
        0.0,
        -0.52037,
        7.39422,
        21.86107,
        1.0
      ],
      "name": "Torus.001"
    },
    {
      "mesh": 0,
      "name": "Torus.001_0"
    }
  ],
  "scene": 0,
  "scenes": [
    {
      "name": "Sketchfab_Scene",
      "nodes": [
        0
      ]
    }
  ]
}
